PathFileType	4	(X/Y/Z)	SUBJ11_3_walk_RCNL2025.trc
DataRate	CameraRate	NumFrames	NumMarkers	Units	OrigDataRate	OrigDataStartFrame	OrigNumFrames
100	100	8	25	mm	100	271	432
Frame#	Time	R_Shoulder			L_Shoulder			C7			J_Notch			R_Elbow			L_Elbow			R_Wrist			L_Wrist			R_Asis			L_Asis			Sacral			Thoracic			Sternum			R_Thigh_Lateral			R_Knee_Lateral			R_Shank_Lateral			R_Ankle_Lateral			R_Heel			R_Toe			L_Thigh_Lateral			L_Knee_Lateral			L_Shank_Lateral			L_Ankle_Lateral			L_Heel			L_Toe		
		X1	Y1	Z1	X2	Y2	Z2	X3	Y3	Z3	X4	Y4	Z4	X5	Y5	Z5	X6	Y6	Z6	X7	Y7	Z7	X8	Y8	Z8	X9	Y9	Z9	X10	Y10	Z10	X11	Y11	Z11	X12	Y12	Z12	X13	Y13	Z13	X14	Y14	Z14	X15	Y15	Z15	X16	Y16	Z16	X17	Y17	Z17	X18	Y18	Z18	X19	Y19	Z19	X20	Y20	Z20	X21	Y21	Z21	X22	Y22	Z22	X23	Y23	Z23	X24	Y24	Z24	X25	Y25	Z25
271	2.70000000	1223.405518	1424.127930	116.711639	1255.605835	1436.661621	-280.954529	1192.291382	1475.931641	-79.584976	1344.212891	1383.278687	-68.501251	1159.205933	1081.277222	182.473297	1271.083984	1090.057739	-361.255402	1241.223083	832.307312	177.123627	1365.143982	844.074341	-325.129242	1331.145020	966.816711	69.507408	1342.409912	957.742554	-222.027725	1159.865967	972.245789	-87.754265	1127.914795	1289.610596	-96.849327	1422.160400	1188.428589	-70.427925	1318.903198	617.835815	120.826797	1360.133057	466.491364	57.699043	1349.588379	261.456360	92.683281	1311.915039	63.165680	31.327347	1248.702271	47.125301	-12.590525	1444.549683	44.817581	-7.234624	1288.398682	606.035828	-316.363647	1301.744263	466.849396	-241.830292	1147.689575	333.617981	-272.753510	1005.814941	204.393509	-200.618729	972.964478	236.129974	-140.303085	1068.842163	82.396568	-186.589676
272	2.71000000	1234.418213	1426.792358	116.662216	1265.226685	1437.466919	-281.432037	1202.836792	1477.774414	-79.698265	1354.851074	1385.319458	-68.743233	1173.429565	1083.916870	184.788483	1277.345459	1090.305542	-359.982147	1259.176392	836.263519	179.357101	1364.672668	841.747620	-326.214157	1342.437012	968.120850	70.097641	1353.446777	960.100525	-221.700317	1171.080933	974.069519	-87.108810	1138.568726	1291.230957	-95.646477	1432.998535	1190.578125	-70.331245	1325.853027	618.705627	120.617455	1363.002563	466.455444	56.953060	1351.090942	261.389282	92.122475	1312.142944	63.311848	31.117367	1248.680054	47.277885	-12.566063	1444.545166	44.875069	-7.552068	1306.868652	608.645081	-316.119781	1324.427124	469.920959	-241.671463	1172.466553	334.646942	-272.420471	1032.114990	203.869186	-200.040359	998.279053	234.921600	-139.854050	1097.842041	83.741333	-185.811050
273	2.72000000	1245.523438	1429.447876	116.510910	1274.863525	1438.265137	-281.914673	1213.389160	1479.516113	-79.946838	1365.515869	1387.220825	-69.099075	1187.752686	1086.634766	187.079788	1283.310547	1090.680908	-358.855865	1277.101807	840.323395	181.510727	1364.093567	839.818512	-327.282959	1353.571655	969.346191	70.641266	1364.404419	962.343689	-221.442337	1182.179565	975.772461	-86.543800	1149.193604	1292.788940	-94.581261	1443.727905	1192.550659	-70.345215	1332.207886	619.426453	120.262733	1365.458984	466.452118	56.212448	1352.330933	261.360779	91.600960	1312.340332	63.466496	30.924988	1248.622681	47.430546	-12.526538	1444.521118	44.946056	-7.838501	1325.770752	611.476196	-315.992035	1346.798584	472.990631	-241.491425	1197.644287	334.848877	-272.067444	1059.270142	202.061966	-199.439194	1024.227539	232.402847	-139.508453	1128.153320	84.188194	-184.557007
274	2.73000000	1256.725220	1432.023071	116.272667	1284.525269	1439.032715	-282.390625	1223.949341	1481.115479	-80.292084	1376.210815	1388.948975	-69.561928	1202.106689	1089.355347	189.344009	1288.965454	1091.158691	-357.886505	1294.992798	844.421783	183.584747	1363.461548	838.249908	-328.344788	1364.546143	970.465515	71.147072	1375.274170	964.434265	-221.226471	1193.160522	977.322632	-86.054710	1159.801514	1294.250854	-93.654930	1454.372681	1194.322876	-70.466095	1338.085083	619.998901	119.781128	1367.620605	466.476074	55.455959	1353.363892	261.363251	91.100082	1312.514404	63.625050	30.730913	1248.547363	47.591312	-12.506710	1444.494751	45.027706	-8.102716	1344.961182	614.517456	-315.948181	1368.790527	476.020325	-241.283081	1223.154419	334.283325	-271.691864	1087.216309	199.053177	-198.810593	1050.824951	228.596664	-139.200317	1159.660034	83.809685	-183.035721
275	2.74000000	1268.024780	1434.443115	115.965103	1294.222656	1439.733521	-282.854919	1234.526001	1482.534424	-80.691803	1386.937500	1390.469360	-70.120247	1216.432617	1091.992920	191.580490	1294.299561	1091.694580	-357.081757	1312.836365	848.483490	185.580467	1362.833313	836.990387	-329.411545	1375.361206	971.443176	71.621147	1386.047119	966.344177	-221.029739	1204.026001	978.693665	-85.640381	1170.402100	1295.584839	-92.854660	1464.953613	1195.868408	-70.684265	1343.640259	620.433716	119.211449	1369.597046	466.520721	54.678761	1354.237183	261.388916	90.611694	1312.668823	63.783684	30.522865	1248.464966	47.767658	-12.528597	1444.475586	45.113537	-8.347011	1364.253296	617.727112	-315.949921	1390.338257	478.980499	-241.041153	1248.901855	333.034760	-271.293060	1115.894775	194.949738	-198.162857	1078.089233	223.550415	-138.877518	1192.248291	82.708168	-181.461990
276	2.75000000	1279.420654	1436.636963	115.606239	1303.969116	1440.323608	-283.307678	1245.131348	1483.739868	-81.108223	1397.696411	1391.747925	-70.759178	1230.685303	1094.461304	193.788925	1299.312256	1092.236572	-356.444733	1330.617065	852.432220	187.499832	1362.266174	835.979492	-330.494415	1386.025024	972.239807	72.067490	1396.716797	968.050720	-220.834396	1214.779053	979.862305	-85.300026	1181.002686	1296.760254	-92.159409	1475.485962	1197.159058	-70.984062	1349.029541	620.742432	118.601723	1371.481934	466.577606	53.890076	1354.994873	261.430481	90.136864	1312.808838	63.943184	30.298355	1248.376587	47.965542	-12.596193	1444.467407	45.196022	-8.568499	1383.437988	621.031311	-315.961243	1411.381592	481.844025	-240.763397	1274.769043	331.209290	-270.872314	1145.255371	189.872894	-197.520523	1106.036255	217.335739	-138.513626	1225.806274	81.001907	-180.026093
277	2.76000000	1290.909668	1438.543457	115.212868	1313.778076	1440.757080	-283.752258	1255.777344	1484.703857	-81.513222	1408.488770	1392.753784	-71.461113	1244.838135	1096.683472	195.969147	1304.017700	1092.733276	-355.972992	1348.320862	856.197754	189.345474	1361.814636	835.152985	-331.600357	1396.552246	972.818237	72.486832	1407.279907	969.529907	-220.628433	1225.424316	980.808167	-85.029488	1191.608032	1297.748535	-91.546982	1485.979736	1198.167114	-71.344276	1354.380493	620.933472	117.999207	1373.352295	466.635956	53.107864	1355.679443	261.481689	89.684700	1312.939209	64.105003	30.062357	1248.275757	48.187874	-12.700015	1444.471680	45.268856	-8.762479	1402.305786	624.331116	-315.957306	1431.866821	484.580109	-240.451614	1300.627808	328.927429	-270.436737	1175.258667	183.949326	-196.921326	1134.677490	210.045425	-138.110382	1260.226562	78.814102	-178.876816
278	2.77000000	1302.489746	1440.116089	114.799431	1323.661621	1440.989502	-284.193726	1266.472900	1485.404907	-81.889992	1419.314575	1393.461548	-72.206566	1258.886597	1098.598877	198.121292	1308.449341	1093.137695	-355.657074	1365.937195	859.720154	191.120392	1361.527283	834.446655	-332.730408	1406.963013	973.149963	72.875618	1417.734131	970.753601	-220.406952	1235.969482	981.514404	-84.821091	1202.219849	1298.524170	-90.998413	1496.439819	1198.865845	-71.740601	1359.779541	621.011475	117.444412	1375.270630	466.682190	52.354221	1356.335815	261.536987	89.269844	1313.060913	64.266441	29.823103	1248.158081	48.432377	-12.827502	1444.488159	45.326641	-8.925897	1420.670776	627.517395	-315.928131	1451.748291	487.151245	-240.111496	1326.353027	326.308990	-270.003357	1205.874878	177.306412	-196.409607	1164.018921	201.789764	-137.694153	1295.408325	76.267349	-178.115463
